<?xml version="1.0" encoding="utf-8" standalone="no"?>
<!DOCTYPE svg PUBLIC "-//W3C//DTD SVG 1.1//EN"
  "http://www.w3.org/Graphics/SVG/1.1/DTD/svg11.dtd">
<!-- Created with matplotlib (http://matplotlib.org/) -->
<svg height="343pt" version="1.1" viewBox="0 0 509 343" width="509pt" xmlns="http://www.w3.org/2000/svg" xmlns:xlink="http://www.w3.org/1999/xlink">
 <defs>
  <style type="text/css">
*{stroke-linecap:butt;stroke-linejoin:round;}
  </style>
 </defs>
 <g id="figure_1">
  <g id="patch_1">
   <path d="
M0 343.845
L509.569 343.845
L509.569 0
L0 0
z
" style="fill:#f0f0f0;"/>
  </g>
  <g id="axes_1">
   <g id="patch_2">
    <path d="
M51.048 292.734
L489.528 292.734
L489.528 53.6938
L51.048 53.6938
z
" style="fill:#f0f0f0;"/>
   </g>
   <g id="matplotlib.axis_1">
    <g id="xtick_1">
     <g id="line2d_1">
      <path clip-path="url(#p6f308c8336)" d="
M87.588 292.734
L87.588 53.6938" style="fill:none;stroke:#cbcbcb;"/>
     </g>
     <g id="line2d_2">
      <defs>
       <path d="
M0 0
L0 0" id="m8bc147ca23" style="stroke:#555555;stroke-width:0.5;"/>
      </defs>
      <g>
       <use style="fill:#555555;stroke:#555555;stroke-width:0.5;" x="87.588" xlink:href="#m8bc147ca23" y="292.7338125"/>
      </g>
     </g>
     <g id="line2d_3">
      <g>
       <use style="fill:#555555;stroke:#555555;stroke-width:0.5;" x="87.588" xlink:href="#m8bc147ca23" y="53.6938125"/>
      </g>
     </g>
     <g id="text_1">
      <!-- Renzi -->
      <defs>
       <path d="
M44.3906 34.1875
Q47.5625 33.1094 50.5625 29.5938
Q53.5625 26.0781 56.5938 19.9219
L66.6094 0
L56 0
L46.6875 18.7031
Q43.0625 26.0312 39.6719 28.4219
Q36.2812 30.8125 30.4219 30.8125
L19.6719 30.8125
L19.6719 0
L9.8125 0
L9.8125 72.9062
L32.0781 72.9062
Q44.5781 72.9062 50.7344 67.6719
Q56.8906 62.4531 56.8906 51.9062
Q56.8906 45.0156 53.6875 40.4688
Q50.4844 35.9375 44.3906 34.1875
M19.6719 64.7969
L19.6719 38.9219
L32.0781 38.9219
Q39.2031 38.9219 42.8438 42.2188
Q46.4844 45.5156 46.4844 51.9062
Q46.4844 58.2969 42.8438 61.5469
Q39.2031 64.7969 32.0781 64.7969
z
" id="DejaVuSans-52"/>
       <path d="
M56.2031 29.5938
L56.2031 25.2031
L14.8906 25.2031
Q15.4844 15.9219 20.4844 11.0625
Q25.4844 6.20312 34.4219 6.20312
Q39.5938 6.20312 44.4531 7.46875
Q49.3125 8.73438 54.1094 11.2812
L54.1094 2.78125
Q49.2656 0.734375 44.1875 -0.34375
Q39.1094 -1.42188 33.8906 -1.42188
Q20.7969 -1.42188 13.1562 6.1875
Q5.51562 13.8125 5.51562 26.8125
Q5.51562 40.2344 12.7656 48.1094
Q20.0156 56 32.3281 56
Q43.3594 56 49.7812 48.8906
Q56.2031 41.7969 56.2031 29.5938
M47.2188 32.2344
Q47.125 39.5938 43.0938 43.9844
Q39.0625 48.3906 32.4219 48.3906
Q24.9062 48.3906 20.3906 44.1406
Q15.875 39.8906 15.1875 32.1719
z
" id="DejaVuSans-65"/>
       <path d="
M5.51562 54.6875
L48.1875 54.6875
L48.1875 46.4844
L14.4062 7.17188
L48.1875 7.17188
L48.1875 0
L4.29688 0
L4.29688 8.20312
L38.0938 47.5156
L5.51562 47.5156
z
" id="DejaVuSans-7a"/>
       <path d="
M9.42188 54.6875
L18.4062 54.6875
L18.4062 0
L9.42188 0
z

M9.42188 75.9844
L18.4062 75.9844
L18.4062 64.5938
L9.42188 64.5938
z
" id="DejaVuSans-69"/>
       <path d="
M54.8906 33.0156
L54.8906 0
L45.9062 0
L45.9062 32.7188
Q45.9062 40.4844 42.875 44.3281
Q39.8438 48.1875 33.7969 48.1875
Q26.5156 48.1875 22.3125 43.5469
Q18.1094 38.9219 18.1094 30.9062
L18.1094 0
L9.07812 0
L9.07812 54.6875
L18.1094 54.6875
L18.1094 46.1875
Q21.3438 51.125 25.7031 53.5625
Q30.0781 56 35.7969 56
Q45.2188 56 50.0469 50.1719
Q54.8906 44.3438 54.8906 33.0156" id="DejaVuSans-6e"/>
      </defs>
      <g style="fill:#555555;" transform="translate(75.0395625 304.33225)scale(0.1 -0.1)">
       <use xlink:href="#DejaVuSans-52"/>
       <use x="64.982421875" xlink:href="#DejaVuSans-65"/>
       <use x="126.505859375" xlink:href="#DejaVuSans-6e"/>
       <use x="189.884765625" xlink:href="#DejaVuSans-7a"/>
       <use x="242.375" xlink:href="#DejaVuSans-69"/>
      </g>
     </g>
    </g>
    <g id="xtick_2">
     <g id="line2d_4">
      <path clip-path="url(#p6f308c8336)" d="
M160.668 292.734
L160.668 53.6938" style="fill:none;stroke:#cbcbcb;"/>
     </g>
     <g id="line2d_5">
      <g>
       <use style="fill:#555555;stroke:#555555;stroke-width:0.5;" x="160.668" xlink:href="#m8bc147ca23" y="292.7338125"/>
      </g>
     </g>
     <g id="line2d_6">
      <g>
       <use style="fill:#555555;stroke:#555555;stroke-width:0.5;" x="160.668" xlink:href="#m8bc147ca23" y="53.6938125"/>
      </g>
     </g>
     <g id="text_2">
      <!-- Di Maio -->
      <defs>
       <path d="
M19.6719 64.7969
L19.6719 8.10938
L31.5938 8.10938
Q46.6875 8.10938 53.6875 14.9375
Q60.6875 21.7812 60.6875 36.5312
Q60.6875 51.1719 53.6875 57.9844
Q46.6875 64.7969 31.5938 64.7969
z

M9.8125 72.9062
L30.0781 72.9062
Q51.2656 72.9062 61.1719 64.0938
Q71.0938 55.2812 71.0938 36.5312
Q71.0938 17.6719 61.125 8.82812
Q51.1719 0 30.0781 0
L9.8125 0
z
" id="DejaVuSans-44"/>
       <path d="
M9.8125 72.9062
L24.5156 72.9062
L43.1094 23.2969
L61.8125 72.9062
L76.5156 72.9062
L76.5156 0
L66.8906 0
L66.8906 64.0156
L48.0938 14.0156
L38.1875 14.0156
L19.3906 64.0156
L19.3906 0
L9.8125 0
z
" id="DejaVuSans-4d"/>
       <path id="DejaVuSans-20"/>
       <path d="
M30.6094 48.3906
Q23.3906 48.3906 19.1875 42.75
Q14.9844 37.1094 14.9844 27.2969
Q14.9844 17.4844 19.1562 11.8438
Q23.3438 6.20312 30.6094 6.20312
Q37.7969 6.20312 41.9844 11.8594
Q46.1875 17.5312 46.1875 27.2969
Q46.1875 37.0156 41.9844 42.7031
Q37.7969 48.3906 30.6094 48.3906
M30.6094 56
Q42.3281 56 49.0156 48.375
Q55.7188 40.7656 55.7188 27.2969
Q55.7188 13.875 49.0156 6.21875
Q42.3281 -1.42188 30.6094 -1.42188
Q18.8438 -1.42188 12.1719 6.21875
Q5.51562 13.875 5.51562 27.2969
Q5.51562 40.7656 12.1719 48.375
Q18.8438 56 30.6094 56" id="DejaVuSans-6f"/>
       <path d="
M34.2812 27.4844
Q23.3906 27.4844 19.1875 25
Q14.9844 22.5156 14.9844 16.5
Q14.9844 11.7188 18.1406 8.90625
Q21.2969 6.10938 26.7031 6.10938
Q34.1875 6.10938 38.7031 11.4062
Q43.2188 16.7031 43.2188 25.4844
L43.2188 27.4844
z

M52.2031 31.2031
L52.2031 0
L43.2188 0
L43.2188 8.29688
Q40.1406 3.32812 35.5469 0.953125
Q30.9531 -1.42188 24.3125 -1.42188
Q15.9219 -1.42188 10.9531 3.29688
Q6 8.01562 6 15.9219
Q6 25.1406 12.1719 29.8281
Q18.3594 34.5156 30.6094 34.5156
L43.2188 34.5156
L43.2188 35.4062
Q43.2188 41.6094 39.1406 45
Q35.0625 48.3906 27.6875 48.3906
Q23 48.3906 18.5469 47.2656
Q14.1094 46.1406 10.0156 43.8906
L10.0156 52.2031
Q14.9375 54.1094 19.5781 55.0469
Q24.2188 56 28.6094 56
Q40.4844 56 46.3438 49.8438
Q52.2031 43.7031 52.2031 31.2031" id="DejaVuSans-61"/>
      </defs>
      <g style="fill:#555555;" transform="translate(142.28675 304.33225)scale(0.1 -0.1)">
       <use xlink:href="#DejaVuSans-44"/>
       <use x="77.001953125" xlink:href="#DejaVuSans-69"/>
       <use x="104.78515625" xlink:href="#DejaVuSans-20"/>
       <use x="136.572265625" xlink:href="#DejaVuSans-4d"/>
       <use x="222.8515625" xlink:href="#DejaVuSans-61"/>
       <use x="284.130859375" xlink:href="#DejaVuSans-69"/>
       <use x="311.9140625" xlink:href="#DejaVuSans-6f"/>
      </g>
     </g>
    </g>
    <g id="xtick_3">
     <g id="line2d_7">
      <path clip-path="url(#p6f308c8336)" d="
M233.748 292.734
L233.748 53.6938" style="fill:none;stroke:#cbcbcb;"/>
     </g>
     <g id="line2d_8">
      <g>
       <use style="fill:#555555;stroke:#555555;stroke-width:0.5;" x="233.748" xlink:href="#m8bc147ca23" y="292.7338125"/>
      </g>
     </g>
     <g id="line2d_9">
      <g>
       <use style="fill:#555555;stroke:#555555;stroke-width:0.5;" x="233.748" xlink:href="#m8bc147ca23" y="53.6938125"/>
      </g>
     </g>
     <g id="text_3">
      <!-- Salvini -->
      <defs>
       <path d="
M53.5156 70.5156
L53.5156 60.8906
Q47.9062 63.5781 42.9219 64.8906
Q37.9375 66.2188 33.2969 66.2188
Q25.25 66.2188 20.875 63.0938
Q16.5 59.9688 16.5 54.2031
Q16.5 49.3594 19.4062 46.8906
Q22.3125 44.4375 30.4219 42.9219
L36.375 41.7031
Q47.4062 39.5938 52.6562 34.2969
Q57.9062 29 57.9062 20.125
Q57.9062 9.51562 50.7969 4.04688
Q43.7031 -1.42188 29.9844 -1.42188
Q24.8125 -1.42188 18.9688 -0.25
Q13.1406 0.921875 6.89062 3.21875
L6.89062 13.375
Q12.8906 10.0156 18.6562 8.29688
Q24.4219 6.59375 29.9844 6.59375
Q38.4219 6.59375 43.0156 9.90625
Q47.6094 13.2344 47.6094 19.3906
Q47.6094 24.75 44.3125 27.7812
Q41.0156 30.8125 33.5 32.3281
L27.4844 33.5
Q16.4531 35.6875 11.5156 40.375
Q6.59375 45.0625 6.59375 53.4219
Q6.59375 63.0938 13.4062 68.6562
Q20.2188 74.2188 32.1719 74.2188
Q37.3125 74.2188 42.625 73.2812
Q47.9531 72.3594 53.5156 70.5156" id="DejaVuSans-53"/>
       <path d="
M2.98438 54.6875
L12.5 54.6875
L29.5938 8.79688
L46.6875 54.6875
L56.2031 54.6875
L35.6875 0
L23.4844 0
z
" id="DejaVuSans-76"/>
       <path d="
M9.42188 75.9844
L18.4062 75.9844
L18.4062 0
L9.42188 0
z
" id="DejaVuSans-6c"/>
      </defs>
      <g style="fill:#555555;" transform="translate(218.01284375 304.33225)scale(0.1 -0.1)">
       <use xlink:href="#DejaVuSans-53"/>
       <use x="63.4765625" xlink:href="#DejaVuSans-61"/>
       <use x="124.755859375" xlink:href="#DejaVuSans-6c"/>
       <use x="152.5390625" xlink:href="#DejaVuSans-76"/>
       <use x="211.71875" xlink:href="#DejaVuSans-69"/>
       <use x="239.501953125" xlink:href="#DejaVuSans-6e"/>
       <use x="302.880859375" xlink:href="#DejaVuSans-69"/>
      </g>
     </g>
    </g>
    <g id="xtick_4">
     <g id="line2d_10">
      <path clip-path="url(#p6f308c8336)" d="
M306.828 292.734
L306.828 53.6938" style="fill:none;stroke:#cbcbcb;"/>
     </g>
     <g id="line2d_11">
      <g>
       <use style="fill:#555555;stroke:#555555;stroke-width:0.5;" x="306.828" xlink:href="#m8bc147ca23" y="292.7338125"/>
      </g>
     </g>
     <g id="line2d_12">
      <g>
       <use style="fill:#555555;stroke:#555555;stroke-width:0.5;" x="306.828" xlink:href="#m8bc147ca23" y="53.6938125"/>
      </g>
     </g>
     <g id="text_4">
      <!-- Pisapia -->
      <defs>
       <path d="
M19.6719 64.7969
L19.6719 37.4062
L32.0781 37.4062
Q38.9688 37.4062 42.7188 40.9688
Q46.4844 44.5312 46.4844 51.125
Q46.4844 57.6719 42.7188 61.2344
Q38.9688 64.7969 32.0781 64.7969
z

M9.8125 72.9062
L32.0781 72.9062
Q44.3438 72.9062 50.6094 67.3594
Q56.8906 61.8125 56.8906 51.125
Q56.8906 40.3281 50.6094 34.8125
Q44.3438 29.2969 32.0781 29.2969
L19.6719 29.2969
L19.6719 0
L9.8125 0
z
" id="DejaVuSans-50"/>
       <path d="
M18.1094 8.20312
L18.1094 -20.7969
L9.07812 -20.7969
L9.07812 54.6875
L18.1094 54.6875
L18.1094 46.3906
Q20.9531 51.2656 25.2656 53.625
Q29.5938 56 35.5938 56
Q45.5625 56 51.7812 48.0938
Q58.0156 40.1875 58.0156 27.2969
Q58.0156 14.4062 51.7812 6.48438
Q45.5625 -1.42188 35.5938 -1.42188
Q29.5938 -1.42188 25.2656 0.953125
Q20.9531 3.32812 18.1094 8.20312
M48.6875 27.2969
Q48.6875 37.2031 44.6094 42.8438
Q40.5312 48.4844 33.4062 48.4844
Q26.2656 48.4844 22.1875 42.8438
Q18.1094 37.2031 18.1094 27.2969
Q18.1094 17.3906 22.1875 11.75
Q26.2656 6.10938 33.4062 6.10938
Q40.5312 6.10938 44.6094 11.75
Q48.6875 17.3906 48.6875 27.2969" id="DejaVuSans-70"/>
       <path d="
M44.2812 53.0781
L44.2812 44.5781
Q40.4844 46.5312 36.375 47.5
Q32.2812 48.4844 27.875 48.4844
Q21.1875 48.4844 17.8438 46.4375
Q14.5 44.3906 14.5 40.2812
Q14.5 37.1562 16.8906 35.375
Q19.2812 33.5938 26.5156 31.9844
L29.5938 31.2969
Q39.1562 29.25 43.1875 25.5156
Q47.2188 21.7812 47.2188 15.0938
Q47.2188 7.46875 41.1875 3.01562
Q35.1562 -1.42188 24.6094 -1.42188
Q20.2188 -1.42188 15.4531 -0.5625
Q10.6875 0.296875 5.42188 2
L5.42188 11.2812
Q10.4062 8.6875 15.2344 7.39062
Q20.0625 6.10938 24.8125 6.10938
Q31.1562 6.10938 34.5625 8.28125
Q37.9844 10.4531 37.9844 14.4062
Q37.9844 18.0625 35.5156 20.0156
Q33.0625 21.9688 24.7031 23.7812
L21.5781 24.5156
Q13.2344 26.2656 9.51562 29.9062
Q5.8125 33.5469 5.8125 39.8906
Q5.8125 47.6094 11.2812 51.7969
Q16.75 56 26.8125 56
Q31.7812 56 36.1719 55.2656
Q40.5781 54.5469 44.2812 53.0781" id="DejaVuSans-73"/>
      </defs>
      <g style="fill:#555555;" transform="translate(290.18503125 304.33225)scale(0.1 -0.1)">
       <use xlink:href="#DejaVuSans-50"/>
       <use x="58.052734375" xlink:href="#DejaVuSans-69"/>
       <use x="85.8359375" xlink:href="#DejaVuSans-73"/>
       <use x="137.935546875" xlink:href="#DejaVuSans-61"/>
       <use x="199.21484375" xlink:href="#DejaVuSans-70"/>
       <use x="262.69140625" xlink:href="#DejaVuSans-69"/>
       <use x="290.474609375" xlink:href="#DejaVuSans-61"/>
      </g>
     </g>
    </g>
    <g id="xtick_5">
     <g id="line2d_13">
      <path clip-path="url(#p6f308c8336)" d="
M379.908 292.734
L379.908 53.6938" style="fill:none;stroke:#cbcbcb;"/>
     </g>
     <g id="line2d_14">
      <g>
       <use style="fill:#555555;stroke:#555555;stroke-width:0.5;" x="379.908" xlink:href="#m8bc147ca23" y="292.7338125"/>
      </g>
     </g>
     <g id="line2d_15">
      <g>
       <use style="fill:#555555;stroke:#555555;stroke-width:0.5;" x="379.908" xlink:href="#m8bc147ca23" y="53.6938125"/>
      </g>
     </g>
     <g id="text_5">
      <!-- Meloni -->
      <g style="fill:#555555;" transform="translate(364.4705 304.33225)scale(0.1 -0.1)">
       <use xlink:href="#DejaVuSans-4d"/>
       <use x="86.279296875" xlink:href="#DejaVuSans-65"/>
       <use x="147.802734375" xlink:href="#DejaVuSans-6c"/>
       <use x="175.5859375" xlink:href="#DejaVuSans-6f"/>
       <use x="236.767578125" xlink:href="#DejaVuSans-6e"/>
       <use x="300.146484375" xlink:href="#DejaVuSans-69"/>
      </g>
     </g>
    </g>
    <g id="xtick_6">
     <g id="line2d_16">
      <path clip-path="url(#p6f308c8336)" d="
M452.988 292.734
L452.988 53.6938" style="fill:none;stroke:#cbcbcb;"/>
     </g>
     <g id="line2d_17">
      <g>
       <use style="fill:#555555;stroke:#555555;stroke-width:0.5;" x="452.988" xlink:href="#m8bc147ca23" y="292.7338125"/>
      </g>
     </g>
     <g id="line2d_18">
      <g>
       <use style="fill:#555555;stroke:#555555;stroke-width:0.5;" x="452.988" xlink:href="#m8bc147ca23" y="53.6938125"/>
      </g>
     </g>
     <g id="text_6">
      <!-- Berlusconi -->
      <defs>
       <path d="
M8.5 21.5781
L8.5 54.6875
L17.4844 54.6875
L17.4844 21.9219
Q17.4844 14.1562 20.5 10.2656
Q23.5312 6.39062 29.5938 6.39062
Q36.8594 6.39062 41.0781 11.0312
Q45.3125 15.6719 45.3125 23.6875
L45.3125 54.6875
L54.2969 54.6875
L54.2969 0
L45.3125 0
L45.3125 8.40625
Q42.0469 3.42188 37.7188 1
Q33.4062 -1.42188 27.6875 -1.42188
Q18.2656 -1.42188 13.375 4.4375
Q8.5 10.2969 8.5 21.5781
M31.1094 56
z
" id="DejaVuSans-75"/>
       <path d="
M48.7812 52.5938
L48.7812 44.1875
Q44.9688 46.2969 41.1406 47.3438
Q37.3125 48.3906 33.4062 48.3906
Q24.6562 48.3906 19.8125 42.8438
Q14.9844 37.3125 14.9844 27.2969
Q14.9844 17.2812 19.8125 11.7344
Q24.6562 6.20312 33.4062 6.20312
Q37.3125 6.20312 41.1406 7.25
Q44.9688 8.29688 48.7812 10.4062
L48.7812 2.09375
Q45.0156 0.34375 40.9844 -0.53125
Q36.9688 -1.42188 32.4219 -1.42188
Q20.0625 -1.42188 12.7812 6.34375
Q5.51562 14.1094 5.51562 27.2969
Q5.51562 40.6719 12.8594 48.3281
Q20.2188 56 33.0156 56
Q37.1562 56 41.1094 55.1406
Q45.0625 54.2969 48.7812 52.5938" id="DejaVuSans-63"/>
       <path d="
M19.6719 34.8125
L19.6719 8.10938
L35.5 8.10938
Q43.4531 8.10938 47.2812 11.4062
Q51.125 14.7031 51.125 21.4844
Q51.125 28.3281 47.2812 31.5625
Q43.4531 34.8125 35.5 34.8125
z

M19.6719 64.7969
L19.6719 42.8281
L34.2812 42.8281
Q41.5 42.8281 45.0312 45.5312
Q48.5781 48.25 48.5781 53.8125
Q48.5781 59.3281 45.0312 62.0625
Q41.5 64.7969 34.2812 64.7969
z

M9.8125 72.9062
L35.0156 72.9062
Q46.2969 72.9062 52.3906 68.2188
Q58.5 63.5312 58.5 54.8906
Q58.5 48.1875 55.375 44.2344
Q52.25 40.2812 46.1875 39.3125
Q53.4688 37.75 57.5 32.7812
Q61.5312 27.8281 61.5312 20.4062
Q61.5312 10.6406 54.8906 5.3125
Q48.25 0 35.9844 0
L9.8125 0
z
" id="DejaVuSans-42"/>
       <path d="
M41.1094 46.2969
Q39.5938 47.1719 37.8125 47.5781
Q36.0312 48 33.8906 48
Q26.2656 48 22.1875 43.0469
Q18.1094 38.0938 18.1094 28.8125
L18.1094 0
L9.07812 0
L9.07812 54.6875
L18.1094 54.6875
L18.1094 46.1875
Q20.9531 51.1719 25.4844 53.5781
Q30.0312 56 36.5312 56
Q37.4531 56 38.5781 55.875
Q39.7031 55.7656 41.0625 55.5156
z
" id="DejaVuSans-72"/>
      </defs>
      <g style="fill:#555555;" transform="translate(427.85596875 304.33225)scale(0.1 -0.1)">
       <use xlink:href="#DejaVuSans-42"/>
       <use x="68.603515625" xlink:href="#DejaVuSans-65"/>
       <use x="130.126953125" xlink:href="#DejaVuSans-72"/>
       <use x="171.240234375" xlink:href="#DejaVuSans-6c"/>
       <use x="199.0234375" xlink:href="#DejaVuSans-75"/>
       <use x="262.40234375" xlink:href="#DejaVuSans-73"/>
       <use x="314.501953125" xlink:href="#DejaVuSans-63"/>
       <use x="369.482421875" xlink:href="#DejaVuSans-6f"/>
       <use x="430.6640625" xlink:href="#DejaVuSans-6e"/>
       <use x="494.04296875" xlink:href="#DejaVuSans-69"/>
      </g>
     </g>
    </g>
    <g id="text_7">
     <!-- Possibili Sfidanti Elezioni 2018 -->
     <defs>
      <path d="
M31.7812 66.4062
Q24.1719 66.4062 20.3281 58.9062
Q16.5 51.4219 16.5 36.375
Q16.5 21.3906 20.3281 13.8906
Q24.1719 6.39062 31.7812 6.39062
Q39.4531 6.39062 43.2812 13.8906
Q47.125 21.3906 47.125 36.375
Q47.125 51.4219 43.2812 58.9062
Q39.4531 66.4062 31.7812 66.4062
M31.7812 74.2188
Q44.0469 74.2188 50.5156 64.5156
Q56.9844 54.8281 56.9844 36.375
Q56.9844 17.9688 50.5156 8.26562
Q44.0469 -1.42188 31.7812 -1.42188
Q19.5312 -1.42188 13.0625 8.26562
Q6.59375 17.9688 6.59375 36.375
Q6.59375 54.8281 13.0625 64.5156
Q19.5312 74.2188 31.7812 74.2188" id="DejaVuSans-30"/>
      <path d="
M12.4062 8.29688
L28.5156 8.29688
L28.5156 63.9219
L10.9844 60.4062
L10.9844 69.3906
L28.4219 72.9062
L38.2812 72.9062
L38.2812 8.29688
L54.3906 8.29688
L54.3906 0
L12.4062 0
z
" id="DejaVuSans-31"/>
      <path d="
M9.8125 72.9062
L55.9062 72.9062
L55.9062 64.5938
L19.6719 64.5938
L19.6719 43.0156
L54.3906 43.0156
L54.3906 34.7188
L19.6719 34.7188
L19.6719 8.29688
L56.7812 8.29688
L56.7812 0
L9.8125 0
z
" id="DejaVuSans-45"/>
      <path d="
M19.1875 8.29688
L53.6094 8.29688
L53.6094 0
L7.32812 0
L7.32812 8.29688
Q12.9375 14.1094 22.625 23.8906
Q32.3281 33.6875 34.8125 36.5312
Q39.5469 41.8438 41.4219 45.5312
Q43.3125 49.2188 43.3125 52.7812
Q43.3125 58.5938 39.2344 62.25
Q35.1562 65.9219 28.6094 65.9219
Q23.9688 65.9219 18.8125 64.3125
Q13.6719 62.7031 7.8125 59.4219
L7.8125 69.3906
Q13.7656 71.7812 18.9375 73
Q24.125 74.2188 28.4219 74.2188
Q39.75 74.2188 46.4844 68.5469
Q53.2188 62.8906 53.2188 53.4219
Q53.2188 48.9219 51.5312 44.8906
Q49.8594 40.875 45.4062 35.4062
Q44.1875 33.9844 37.6406 27.2188
Q31.1094 20.4531 19.1875 8.29688" id="DejaVuSans-32"/>
      <path d="
M31.7812 34.625
Q24.75 34.625 20.7188 30.8594
Q16.7031 27.0938 16.7031 20.5156
Q16.7031 13.9219 20.7188 10.1562
Q24.75 6.39062 31.7812 6.39062
Q38.8125 6.39062 42.8594 10.1719
Q46.9219 13.9688 46.9219 20.5156
Q46.9219 27.0938 42.8906 30.8594
Q38.875 34.625 31.7812 34.625
M21.9219 38.8125
Q15.5781 40.375 12.0312 44.7188
Q8.5 49.0781 8.5 55.3281
Q8.5 64.0625 14.7188 69.1406
Q20.9531 74.2188 31.7812 74.2188
Q42.6719 74.2188 48.875 69.1406
Q55.0781 64.0625 55.0781 55.3281
Q55.0781 49.0781 51.5312 44.7188
Q48 40.375 41.7031 38.8125
Q48.8281 37.1562 52.7969 32.3125
Q56.7812 27.4844 56.7812 20.5156
Q56.7812 9.90625 50.3125 4.23438
Q43.8438 -1.42188 31.7812 -1.42188
Q19.7344 -1.42188 13.25 4.23438
Q6.78125 9.90625 6.78125 20.5156
Q6.78125 27.4844 10.7812 32.3125
Q14.7969 37.1562 21.9219 38.8125
M18.3125 54.3906
Q18.3125 48.7344 21.8438 45.5625
Q25.3906 42.3906 31.7812 42.3906
Q38.1406 42.3906 41.7188 45.5625
Q45.3125 48.7344 45.3125 54.3906
Q45.3125 60.0625 41.7188 63.2344
Q38.1406 66.4062 31.7812 66.4062
Q25.3906 66.4062 21.8438 63.2344
Q18.3125 60.0625 18.3125 54.3906" id="DejaVuSans-38"/>
      <path d="
M37.1094 75.9844
L37.1094 68.5
L28.5156 68.5
Q23.6875 68.5 21.7969 66.5469
Q19.9219 64.5938 19.9219 59.5156
L19.9219 54.6875
L34.7188 54.6875
L34.7188 47.7031
L19.9219 47.7031
L19.9219 0
L10.8906 0
L10.8906 47.7031
L2.29688 47.7031
L2.29688 54.6875
L10.8906 54.6875
L10.8906 58.5
Q10.8906 67.625 15.1406 71.7969
Q19.3906 75.9844 28.6094 75.9844
z
" id="DejaVuSans-66"/>
      <path d="
M18.3125 70.2188
L18.3125 54.6875
L36.8125 54.6875
L36.8125 47.7031
L18.3125 47.7031
L18.3125 18.0156
Q18.3125 11.3281 20.1406 9.42188
Q21.9688 7.51562 27.5938 7.51562
L36.8125 7.51562
L36.8125 0
L27.5938 0
Q17.1875 0 13.2344 3.875
Q9.28125 7.76562 9.28125 18.0156
L9.28125 47.7031
L2.6875 47.7031
L2.6875 54.6875
L9.28125 54.6875
L9.28125 70.2188
z
" id="DejaVuSans-74"/>
      <path d="
M45.4062 46.3906
L45.4062 75.9844
L54.3906 75.9844
L54.3906 0
L45.4062 0
L45.4062 8.20312
Q42.5781 3.32812 38.25 0.953125
Q33.9375 -1.42188 27.875 -1.42188
Q17.9688 -1.42188 11.7344 6.48438
Q5.51562 14.4062 5.51562 27.2969
Q5.51562 40.1875 11.7344 48.0938
Q17.9688 56 27.875 56
Q33.9375 56 38.25 53.625
Q42.5781 51.2656 45.4062 46.3906
M14.7969 27.2969
Q14.7969 17.3906 18.875 11.75
Q22.9531 6.10938 30.0781 6.10938
Q37.2031 6.10938 41.2969 11.75
Q45.4062 17.3906 45.4062 27.2969
Q45.4062 37.2031 41.2969 42.8438
Q37.2031 48.4844 30.0781 48.4844
Q22.9531 48.4844 18.875 42.8438
Q14.7969 37.2031 14.7969 27.2969" id="DejaVuSans-64"/>
      <path d="
M48.6875 27.2969
Q48.6875 37.2031 44.6094 42.8438
Q40.5312 48.4844 33.4062 48.4844
Q26.2656 48.4844 22.1875 42.8438
Q18.1094 37.2031 18.1094 27.2969
Q18.1094 17.3906 22.1875 11.75
Q26.2656 6.10938 33.4062 6.10938
Q40.5312 6.10938 44.6094 11.75
Q48.6875 17.3906 48.6875 27.2969
M18.1094 46.3906
Q20.9531 51.2656 25.2656 53.625
Q29.5938 56 35.5938 56
Q45.5625 56 51.7812 48.0938
Q58.0156 40.1875 58.0156 27.2969
Q58.0156 14.4062 51.7812 6.48438
Q45.5625 -1.42188 35.5938 -1.42188
Q29.5938 -1.42188 25.2656 0.953125
Q20.9531 3.32812 18.1094 8.20312
L18.1094 0
L9.07812 0
L9.07812 75.9844
L18.1094 75.9844
z
" id="DejaVuSans-62"/>
     </defs>
     <g style="fill:#555555;" transform="translate(210.033625 317.4906875)scale(0.08 -0.08)">
      <use xlink:href="#DejaVuSans-50"/>
      <use x="56.677734375" xlink:href="#DejaVuSans-6f"/>
      <use x="117.859375" xlink:href="#DejaVuSans-73"/>
      <use x="169.958984375" xlink:href="#DejaVuSans-73"/>
      <use x="222.05859375" xlink:href="#DejaVuSans-69"/>
      <use x="249.841796875" xlink:href="#DejaVuSans-62"/>
      <use x="313.318359375" xlink:href="#DejaVuSans-69"/>
      <use x="341.1015625" xlink:href="#DejaVuSans-6c"/>
      <use x="368.884765625" xlink:href="#DejaVuSans-69"/>
      <use x="396.66796875" xlink:href="#DejaVuSans-20"/>
      <use x="428.455078125" xlink:href="#DejaVuSans-53"/>
      <use x="491.931640625" xlink:href="#DejaVuSans-66"/>
      <use x="527.13671875" xlink:href="#DejaVuSans-69"/>
      <use x="554.919921875" xlink:href="#DejaVuSans-64"/>
      <use x="618.396484375" xlink:href="#DejaVuSans-61"/>
      <use x="679.67578125" xlink:href="#DejaVuSans-6e"/>
      <use x="743.0546875" xlink:href="#DejaVuSans-74"/>
      <use x="782.263671875" xlink:href="#DejaVuSans-69"/>
      <use x="810.046875" xlink:href="#DejaVuSans-20"/>
      <use x="841.833984375" xlink:href="#DejaVuSans-45"/>
      <use x="905.017578125" xlink:href="#DejaVuSans-6c"/>
      <use x="932.80078125" xlink:href="#DejaVuSans-65"/>
      <use x="994.32421875" xlink:href="#DejaVuSans-7a"/>
      <use x="1046.81445312" xlink:href="#DejaVuSans-69"/>
      <use x="1074.59765625" xlink:href="#DejaVuSans-6f"/>
      <use x="1135.77929688" xlink:href="#DejaVuSans-6e"/>
      <use x="1199.15820312" xlink:href="#DejaVuSans-69"/>
      <use x="1226.94140625" xlink:href="#DejaVuSans-20"/>
      <use x="1258.72851562" xlink:href="#DejaVuSans-32"/>
      <use x="1322.3515625" xlink:href="#DejaVuSans-30"/>
      <use x="1385.97460938" xlink:href="#DejaVuSans-31"/>
      <use x="1449.59765625" xlink:href="#DejaVuSans-38"/>
     </g>
    </g>
   </g>
   <g id="matplotlib.axis_2">
    <g id="ytick_1">
     <g id="line2d_19">
      <path clip-path="url(#p6f308c8336)" d="
M51.048 292.734
L489.528 292.734" style="fill:none;stroke:#cbcbcb;"/>
     </g>
     <g id="line2d_20">
      <g>
       <use style="fill:#555555;stroke:#555555;stroke-width:0.5;" x="51.048" xlink:href="#m8bc147ca23" y="292.7338125"/>
      </g>
     </g>
     <g id="line2d_21">
      <g>
       <use style="fill:#555555;stroke:#555555;stroke-width:0.5;" x="489.528" xlink:href="#m8bc147ca23" y="292.7338125"/>
      </g>
     </g>
     <g id="text_8">
      <!-- 0.0M -->
      <defs>
       <path d="
M10.6875 12.4062
L21 12.4062
L21 0
L10.6875 0
z
" id="DejaVuSans-2e"/>
      </defs>
      <g style="fill:#555555;" transform="translate(24.1526875 295.4931875)scale(0.1 -0.1)">
       <use xlink:href="#DejaVuSans-30"/>
       <use x="63.623046875" xlink:href="#DejaVuSans-2e"/>
       <use x="95.41015625" xlink:href="#DejaVuSans-30"/>
       <use x="159.033203125" xlink:href="#DejaVuSans-4d"/>
      </g>
     </g>
    </g>
    <g id="ytick_2">
     <g id="line2d_22">
      <path clip-path="url(#p6f308c8336)" d="
M51.048 232.974
L489.528 232.974" style="fill:none;stroke:#cbcbcb;"/>
     </g>
     <g id="line2d_23">
      <g>
       <use style="fill:#555555;stroke:#555555;stroke-width:0.5;" x="51.048" xlink:href="#m8bc147ca23" y="232.9738125"/>
      </g>
     </g>
     <g id="line2d_24">
      <g>
       <use style="fill:#555555;stroke:#555555;stroke-width:0.5;" x="489.528" xlink:href="#m8bc147ca23" y="232.9738125"/>
      </g>
     </g>
     <g id="text_9">
      <!-- 0.5M -->
      <defs>
       <path d="
M10.7969 72.9062
L49.5156 72.9062
L49.5156 64.5938
L19.8281 64.5938
L19.8281 46.7344
Q21.9688 47.4688 24.1094 47.8281
Q26.2656 48.1875 28.4219 48.1875
Q40.625 48.1875 47.75 41.5
Q54.8906 34.8125 54.8906 23.3906
Q54.8906 11.625 47.5625 5.09375
Q40.2344 -1.42188 26.9062 -1.42188
Q22.3125 -1.42188 17.5469 -0.640625
Q12.7969 0.140625 7.71875 1.70312
L7.71875 11.625
Q12.1094 9.23438 16.7969 8.0625
Q21.4844 6.89062 26.7031 6.89062
Q35.1562 6.89062 40.0781 11.3281
Q45.0156 15.7656 45.0156 23.3906
Q45.0156 31 40.0781 35.4375
Q35.1562 39.8906 26.7031 39.8906
Q22.75 39.8906 18.8125 39.0156
Q14.8906 38.1406 10.7969 36.2812
z
" id="DejaVuSans-35"/>
      </defs>
      <g style="fill:#555555;" transform="translate(24.1526875 235.7331875)scale(0.1 -0.1)">
       <use xlink:href="#DejaVuSans-30"/>
       <use x="63.623046875" xlink:href="#DejaVuSans-2e"/>
       <use x="95.41015625" xlink:href="#DejaVuSans-35"/>
       <use x="159.033203125" xlink:href="#DejaVuSans-4d"/>
      </g>
     </g>
    </g>
    <g id="ytick_3">
     <g id="line2d_25">
      <path clip-path="url(#p6f308c8336)" d="
M51.048 173.214
L489.528 173.214" style="fill:none;stroke:#cbcbcb;"/>
     </g>
     <g id="line2d_26">
      <g>
       <use style="fill:#555555;stroke:#555555;stroke-width:0.5;" x="51.048" xlink:href="#m8bc147ca23" y="173.2138125"/>
      </g>
     </g>
     <g id="line2d_27">
      <g>
       <use style="fill:#555555;stroke:#555555;stroke-width:0.5;" x="489.528" xlink:href="#m8bc147ca23" y="173.2138125"/>
      </g>
     </g>
     <g id="text_10">
      <!-- 1.0M -->
      <g style="fill:#555555;" transform="translate(24.59175 175.9731875)scale(0.1 -0.1)">
       <use xlink:href="#DejaVuSans-31"/>
       <use x="63.623046875" xlink:href="#DejaVuSans-2e"/>
       <use x="95.41015625" xlink:href="#DejaVuSans-30"/>
       <use x="159.033203125" xlink:href="#DejaVuSans-4d"/>
      </g>
     </g>
    </g>
    <g id="ytick_4">
     <g id="line2d_28">
      <path clip-path="url(#p6f308c8336)" d="
M51.048 113.454
L489.528 113.454" style="fill:none;stroke:#cbcbcb;"/>
     </g>
     <g id="line2d_29">
      <g>
       <use style="fill:#555555;stroke:#555555;stroke-width:0.5;" x="51.048" xlink:href="#m8bc147ca23" y="113.4538125"/>
      </g>
     </g>
     <g id="line2d_30">
      <g>
       <use style="fill:#555555;stroke:#555555;stroke-width:0.5;" x="489.528" xlink:href="#m8bc147ca23" y="113.4538125"/>
      </g>
     </g>
     <g id="text_11">
      <!-- 1.5M -->
      <g style="fill:#555555;" transform="translate(24.59175 116.2131875)scale(0.1 -0.1)">
       <use xlink:href="#DejaVuSans-31"/>
       <use x="63.623046875" xlink:href="#DejaVuSans-2e"/>
       <use x="95.41015625" xlink:href="#DejaVuSans-35"/>
       <use x="159.033203125" xlink:href="#DejaVuSans-4d"/>
      </g>
     </g>
    </g>
    <g id="ytick_5">
     <g id="line2d_31">
      <path clip-path="url(#p6f308c8336)" d="
M51.048 53.6938
L489.528 53.6938" style="fill:none;stroke:#cbcbcb;"/>
     </g>
     <g id="line2d_32">
      <g>
       <use style="fill:#555555;stroke:#555555;stroke-width:0.5;" x="51.048" xlink:href="#m8bc147ca23" y="53.6938125"/>
      </g>
     </g>
     <g id="line2d_33">
      <g>
       <use style="fill:#555555;stroke:#555555;stroke-width:0.5;" x="489.528" xlink:href="#m8bc147ca23" y="53.6938125"/>
      </g>
     </g>
     <g id="text_12">
      <!-- 2.0M -->
      <g style="fill:#555555;" transform="translate(24.226125 56.4531875)scale(0.1 -0.1)">
       <use xlink:href="#DejaVuSans-32"/>
       <use x="63.623046875" xlink:href="#DejaVuSans-2e"/>
       <use x="95.41015625" xlink:href="#DejaVuSans-30"/>
       <use x="159.033203125" xlink:href="#DejaVuSans-4d"/>
      </g>
     </g>
    </g>
    <g id="text_13">
     <!-- Facebook Fans -->
     <defs>
      <path d="
M9.8125 72.9062
L51.7031 72.9062
L51.7031 64.5938
L19.6719 64.5938
L19.6719 43.1094
L48.5781 43.1094
L48.5781 34.8125
L19.6719 34.8125
L19.6719 0
L9.8125 0
z
" id="DejaVuSans-46"/>
      <path d="
M9.07812 75.9844
L18.1094 75.9844
L18.1094 31.1094
L44.9219 54.6875
L56.3906 54.6875
L27.3906 29.1094
L57.625 0
L45.9062 0
L18.1094 26.7031
L18.1094 0
L9.07812 0
z
" id="DejaVuSans-6b"/>
     </defs>
     <g style="fill:#555555;" transform="translate(17.4889375 202.0938125)rotate(-90.0)scale(0.08 -0.08)">
      <use xlink:href="#DejaVuSans-46"/>
      <use x="48.39453125" xlink:href="#DejaVuSans-61"/>
      <use x="109.673828125" xlink:href="#DejaVuSans-63"/>
      <use x="164.654296875" xlink:href="#DejaVuSans-65"/>
      <use x="226.177734375" xlink:href="#DejaVuSans-62"/>
      <use x="289.654296875" xlink:href="#DejaVuSans-6f"/>
      <use x="350.8359375" xlink:href="#DejaVuSans-6f"/>
      <use x="412.017578125" xlink:href="#DejaVuSans-6b"/>
      <use x="469.927734375" xlink:href="#DejaVuSans-20"/>
      <use x="501.71484375" xlink:href="#DejaVuSans-46"/>
      <use x="550.109375" xlink:href="#DejaVuSans-61"/>
      <use x="611.388671875" xlink:href="#DejaVuSans-6e"/>
      <use x="674.767578125" xlink:href="#DejaVuSans-73"/>
     </g>
    </g>
   </g>
   <g id="patch_3">
    <path clip-path="url(#p6f308c8336)" d="
M69.318 292.734
L105.858 292.734
L105.858 161.455
L69.318 161.455
z
" style="fill:#30a2da;stroke:#f0f0f0;stroke-linejoin:miter;stroke-width:0.5;"/>
   </g>
   <g id="patch_4">
    <path clip-path="url(#p6f308c8336)" d="
M142.398 292.734
L178.938 292.734
L178.938 161.95
L142.398 161.95
z
" style="fill:#30a2da;stroke:#f0f0f0;stroke-linejoin:miter;stroke-width:0.5;"/>
   </g>
   <g id="patch_5">
    <path clip-path="url(#p6f308c8336)" d="
M215.478 292.734
L252.018 292.734
L252.018 61.5404
L215.478 61.5404
z
" style="fill:#30a2da;stroke:#f0f0f0;stroke-linejoin:miter;stroke-width:0.5;"/>
   </g>
   <g id="patch_6">
    <path clip-path="url(#p6f308c8336)" d="
M288.558 292.734
L325.098 292.734
L325.098 274.82
L288.558 274.82
z
" style="fill:#30a2da;stroke:#f0f0f0;stroke-linejoin:miter;stroke-width:0.5;"/>
   </g>
   <g id="patch_7">
    <path clip-path="url(#p6f308c8336)" d="
M361.638 292.734
L398.178 292.734
L398.178 205.624
L361.638 205.624
z
" style="fill:#30a2da;stroke:#f0f0f0;stroke-linejoin:miter;stroke-width:0.5;"/>
   </g>
   <g id="patch_8">
    <path clip-path="url(#p6f308c8336)" d="
M434.718 292.734
L471.258 292.734
L471.258 174.993
L434.718 174.993
z
" style="fill:#30a2da;stroke:#f0f0f0;stroke-linejoin:miter;stroke-width:0.5;"/>
   </g>
   <g id="line2d_34">
    <path clip-path="url(#p6f308c8336)" d="
M51.048 292.734
L489.528 292.734" style="fill:none;opacity:0.7;stroke:#000000;stroke-width:4;"/>
   </g>
   <g id="patch_9">
    <path d="
M51.048 53.6938
L489.528 53.6938" style="fill:none;stroke:#f0f0f0;stroke-linecap:square;stroke-linejoin:miter;stroke-width:3.0;"/>
   </g>
   <g id="patch_10">
    <path d="
M489.528 292.734
L489.528 53.6938" style="fill:none;stroke:#f0f0f0;stroke-linecap:square;stroke-linejoin:miter;stroke-width:3.0;"/>
   </g>
   <g id="patch_11">
    <path d="
M51.048 292.734
L489.528 292.734" style="fill:none;stroke:#f0f0f0;stroke-linecap:square;stroke-linejoin:miter;stroke-width:3.0;"/>
   </g>
   <g id="patch_12">
    <path d="
M51.048 292.734
L51.048 53.6938" style="fill:none;stroke:#f0f0f0;stroke-linecap:square;stroke-linejoin:miter;stroke-width:3.0;"/>
   </g>
   <g id="text_14">
    <!-- 1098380 -->
    <defs>
     <path d="
M10.9844 1.51562
L10.9844 10.5
Q14.7031 8.73438 18.5 7.8125
Q22.3125 6.89062 25.9844 6.89062
Q35.75 6.89062 40.8906 13.4531
Q46.0469 20.0156 46.7812 33.4062
Q43.9531 29.2031 39.5938 26.9531
Q35.25 24.7031 29.9844 24.7031
Q19.0469 24.7031 12.6719 31.3125
Q6.29688 37.9375 6.29688 49.4219
Q6.29688 60.6406 12.9375 67.4219
Q19.5781 74.2188 30.6094 74.2188
Q43.2656 74.2188 49.9219 64.5156
Q56.5938 54.8281 56.5938 36.375
Q56.5938 19.1406 48.4062 8.85938
Q40.2344 -1.42188 26.4219 -1.42188
Q22.7031 -1.42188 18.8906 -0.6875
Q15.0938 0.046875 10.9844 1.51562
M30.6094 32.4219
Q37.25 32.4219 41.125 36.9531
Q45.0156 41.5 45.0156 49.4219
Q45.0156 57.2812 41.125 61.8438
Q37.25 66.4062 30.6094 66.4062
Q23.9688 66.4062 20.0938 61.8438
Q16.2188 57.2812 16.2188 49.4219
Q16.2188 41.5 20.0938 36.9531
Q23.9688 32.4219 30.6094 32.4219" id="DejaVuSans-39"/>
     <path d="
M40.5781 39.3125
Q47.6562 37.7969 51.625 33
Q55.6094 28.2188 55.6094 21.1875
Q55.6094 10.4062 48.1875 4.48438
Q40.7656 -1.42188 27.0938 -1.42188
Q22.5156 -1.42188 17.6562 -0.515625
Q12.7969 0.390625 7.625 2.20312
L7.625 11.7188
Q11.7188 9.32812 16.5938 8.10938
Q21.4844 6.89062 26.8125 6.89062
Q36.0781 6.89062 40.9375 10.5469
Q45.7969 14.2031 45.7969 21.1875
Q45.7969 27.6406 41.2812 31.2656
Q36.7656 34.9062 28.7188 34.9062
L20.2188 34.9062
L20.2188 43.0156
L29.1094 43.0156
Q36.375 43.0156 40.2344 45.9219
Q44.0938 48.8281 44.0938 54.2969
Q44.0938 59.9062 40.1094 62.9062
Q36.1406 65.9219 28.7188 65.9219
Q24.6562 65.9219 20.0156 65.0312
Q15.375 64.1562 9.8125 62.3125
L9.8125 71.0938
Q15.4375 72.6562 20.3438 73.4375
Q25.25 74.2188 29.5938 74.2188
Q40.8281 74.2188 47.3594 69.1094
Q53.9062 64.0156 53.9062 55.3281
Q53.9062 49.2656 50.4375 45.0938
Q46.9688 40.9219 40.5781 39.3125" id="DejaVuSans-33"/>
    </defs>
    <g transform="translate(64.9779 158.282480512)scale(0.09 -0.09)">
     <use xlink:href="#DejaVuSans-31"/>
     <use x="63.623046875" xlink:href="#DejaVuSans-30"/>
     <use x="127.24609375" xlink:href="#DejaVuSans-39"/>
     <use x="190.869140625" xlink:href="#DejaVuSans-38"/>
     <use x="254.4921875" xlink:href="#DejaVuSans-33"/>
     <use x="318.115234375" xlink:href="#DejaVuSans-38"/>
     <use x="381.73828125" xlink:href="#DejaVuSans-30"/>
    </g>
   </g>
   <g id="text_15">
    <!-- 1094242 -->
    <defs>
     <path d="
M37.7969 64.3125
L12.8906 25.3906
L37.7969 25.3906
z

M35.2031 72.9062
L47.6094 72.9062
L47.6094 25.3906
L58.0156 25.3906
L58.0156 17.1875
L47.6094 17.1875
L47.6094 0
L37.7969 0
L37.7969 17.1875
L4.89062 17.1875
L4.89062 26.7031
z
" id="DejaVuSans-34"/>
    </defs>
    <g transform="translate(138.575175 158.779527141)scale(0.09 -0.09)">
     <use xlink:href="#DejaVuSans-31"/>
     <use x="63.623046875" xlink:href="#DejaVuSans-30"/>
     <use x="127.24609375" xlink:href="#DejaVuSans-39"/>
     <use x="190.869140625" xlink:href="#DejaVuSans-34"/>
     <use x="254.4921875" xlink:href="#DejaVuSans-32"/>
     <use x="318.115234375" xlink:href="#DejaVuSans-34"/>
     <use x="381.73828125" xlink:href="#DejaVuSans-32"/>
    </g>
   </g>
   <g id="text_16">
    <!-- 1934349 -->
    <g transform="translate(211.886278125 57.8678905576)scale(0.09 -0.09)">
     <use xlink:href="#DejaVuSans-31"/>
     <use x="63.623046875" xlink:href="#DejaVuSans-39"/>
     <use x="127.24609375" xlink:href="#DejaVuSans-33"/>
     <use x="190.869140625" xlink:href="#DejaVuSans-34"/>
     <use x="254.4921875" xlink:href="#DejaVuSans-33"/>
     <use x="318.115234375" xlink:href="#DejaVuSans-34"/>
     <use x="381.73828125" xlink:href="#DejaVuSans-39"/>
    </g>
   </g>
   <g id="text_17">
    <!-- 149885 -->
    <g transform="translate(288.27144375 272.213423524)scale(0.09 -0.09)">
     <use xlink:href="#DejaVuSans-31"/>
     <use x="63.623046875" xlink:href="#DejaVuSans-34"/>
     <use x="127.24609375" xlink:href="#DejaVuSans-39"/>
     <use x="190.869140625" xlink:href="#DejaVuSans-38"/>
     <use x="254.4921875" xlink:href="#DejaVuSans-38"/>
     <use x="318.115234375" xlink:href="#DejaVuSans-35"/>
    </g>
   </g>
   <g id="text_18">
    <!-- 728827 -->
    <defs>
     <path d="
M8.20312 72.9062
L55.0781 72.9062
L55.0781 68.7031
L28.6094 0
L18.3125 0
L43.2188 64.5938
L8.20312 64.5938
z
" id="DejaVuSans-37"/>
    </defs>
    <g transform="translate(361.58325 202.672299945)scale(0.09 -0.09)">
     <use xlink:href="#DejaVuSans-37"/>
     <use x="63.623046875" xlink:href="#DejaVuSans-32"/>
     <use x="127.24609375" xlink:href="#DejaVuSans-38"/>
     <use x="190.869140625" xlink:href="#DejaVuSans-38"/>
     <use x="254.4921875" xlink:href="#DejaVuSans-32"/>
     <use x="318.115234375" xlink:href="#DejaVuSans-37"/>
    </g>
   </g>
   <g id="text_19">
    <!-- 985118 -->
    <g transform="translate(434.866228125 171.887240123)scale(0.09 -0.09)">
     <use xlink:href="#DejaVuSans-39"/>
     <use x="63.623046875" xlink:href="#DejaVuSans-38"/>
     <use x="127.24609375" xlink:href="#DejaVuSans-35"/>
     <use x="190.869140625" xlink:href="#DejaVuSans-31"/>
     <use x="254.4921875" xlink:href="#DejaVuSans-31"/>
     <use x="318.115234375" xlink:href="#DejaVuSans-38"/>
    </g>
   </g>
   <g id="text_20">
    <g id="patch_13">
     <path d="
M5.2 338.645
L504.369 338.645
L504.369 324.967
L5.2 324.967
z
" style="fill:#808080;stroke:#808080;stroke-linejoin:miter;stroke-width:0.5;"/>
    </g>
    <a xlink:href="http://www.ildatomancante.it">
     <!-- www.ildatomancante.it                                                                                              Fonte: Facebook -->
     <defs>
      <path d="
M11.7188 12.4062
L22.0156 12.4062
L22.0156 0
L11.7188 0
z

M11.7188 51.7031
L22.0156 51.7031
L22.0156 39.3125
L11.7188 39.3125
z
" id="DejaVuSans-3a"/>
      <path d="
M4.20312 54.6875
L13.1875 54.6875
L24.4219 12.0156
L35.5938 54.6875
L46.1875 54.6875
L57.4219 12.0156
L68.6094 54.6875
L77.5938 54.6875
L63.2812 0
L52.6875 0
L40.9219 44.8281
L29.1094 0
L18.5 0
z
" id="DejaVuSans-77"/>
      <path d="
M52 44.1875
Q55.375 50.25 60.0625 53.125
Q64.75 56 71.0938 56
Q79.6406 56 84.2812 50.0156
Q88.9219 44.0469 88.9219 33.0156
L88.9219 0
L79.8906 0
L79.8906 32.7188
Q79.8906 40.5781 77.0938 44.375
Q74.3125 48.1875 68.6094 48.1875
Q61.625 48.1875 57.5625 43.5469
Q53.5156 38.9219 53.5156 30.9062
L53.5156 0
L44.4844 0
L44.4844 32.7188
Q44.4844 40.625 41.7031 44.4062
Q38.9219 48.1875 33.1094 48.1875
Q26.2188 48.1875 22.1562 43.5312
Q18.1094 38.875 18.1094 30.9062
L18.1094 0
L9.07812 0
L9.07812 54.6875
L18.1094 54.6875
L18.1094 46.1875
Q21.1875 51.2188 25.4844 53.6094
Q29.7812 56 35.6875 56
Q41.6562 56 45.8281 52.9688
Q50 49.9531 52 44.1875" id="DejaVuSans-6d"/>
     </defs>
     <g style="fill:#f0f0f0;" transform="translate(7.2 334.5658125)scale(0.1 -0.1)">
      <use xlink:href="#DejaVuSans-77"/>
      <use x="81.787109375" xlink:href="#DejaVuSans-77"/>
      <use x="163.57421875" xlink:href="#DejaVuSans-77"/>
      <use x="236.236328125" xlink:href="#DejaVuSans-2e"/>
      <use x="268.0234375" xlink:href="#DejaVuSans-69"/>
      <use x="295.806640625" xlink:href="#DejaVuSans-6c"/>
      <use x="323.58984375" xlink:href="#DejaVuSans-64"/>
      <use x="387.06640625" xlink:href="#DejaVuSans-61"/>
      <use x="448.345703125" xlink:href="#DejaVuSans-74"/>
      <use x="487.5546875" xlink:href="#DejaVuSans-6f"/>
      <use x="548.736328125" xlink:href="#DejaVuSans-6d"/>
      <use x="646.1484375" xlink:href="#DejaVuSans-61"/>
      <use x="707.427734375" xlink:href="#DejaVuSans-6e"/>
      <use x="770.806640625" xlink:href="#DejaVuSans-63"/>
      <use x="825.787109375" xlink:href="#DejaVuSans-61"/>
      <use x="887.06640625" xlink:href="#DejaVuSans-6e"/>
      <use x="950.4453125" xlink:href="#DejaVuSans-74"/>
      <use x="989.654296875" xlink:href="#DejaVuSans-65"/>
      <use x="1051.17773438" xlink:href="#DejaVuSans-2e"/>
      <use x="1082.96484375" xlink:href="#DejaVuSans-69"/>
      <use x="1110.74804688" xlink:href="#DejaVuSans-74"/>
      <use x="1149.95703125" xlink:href="#DejaVuSans-20"/>
      <use x="1181.74414062" xlink:href="#DejaVuSans-20"/>
      <use x="1213.53125" xlink:href="#DejaVuSans-20"/>
      <use x="1245.31835938" xlink:href="#DejaVuSans-20"/>
      <use x="1277.10546875" xlink:href="#DejaVuSans-20"/>
      <use x="1308.89257812" xlink:href="#DejaVuSans-20"/>
      <use x="1340.6796875" xlink:href="#DejaVuSans-20"/>
      <use x="1372.46679688" xlink:href="#DejaVuSans-20"/>
      <use x="1404.25390625" xlink:href="#DejaVuSans-20"/>
      <use x="1436.04101562" xlink:href="#DejaVuSans-20"/>
      <use x="1467.828125" xlink:href="#DejaVuSans-20"/>
      <use x="1499.61523438" xlink:href="#DejaVuSans-20"/>
      <use x="1531.40234375" xlink:href="#DejaVuSans-20"/>
      <use x="1563.18945312" xlink:href="#DejaVuSans-20"/>
      <use x="1594.9765625" xlink:href="#DejaVuSans-20"/>
      <use x="1626.76367188" xlink:href="#DejaVuSans-20"/>
      <use x="1658.55078125" xlink:href="#DejaVuSans-20"/>
      <use x="1690.33789062" xlink:href="#DejaVuSans-20"/>
      <use x="1722.125" xlink:href="#DejaVuSans-20"/>
      <use x="1753.91210938" xlink:href="#DejaVuSans-20"/>
      <use x="1785.69921875" xlink:href="#DejaVuSans-20"/>
      <use x="1817.48632812" xlink:href="#DejaVuSans-20"/>
      <use x="1849.2734375" xlink:href="#DejaVuSans-20"/>
      <use x="1881.06054688" xlink:href="#DejaVuSans-20"/>
      <use x="1912.84765625" xlink:href="#DejaVuSans-20"/>
      <use x="1944.63476562" xlink:href="#DejaVuSans-20"/>
      <use x="1976.421875" xlink:href="#DejaVuSans-20"/>
      <use x="2008.20898438" xlink:href="#DejaVuSans-20"/>
      <use x="2039.99609375" xlink:href="#DejaVuSans-20"/>
      <use x="2071.78320312" xlink:href="#DejaVuSans-20"/>
      <use x="2103.5703125" xlink:href="#DejaVuSans-20"/>
      <use x="2135.35742188" xlink:href="#DejaVuSans-20"/>
      <use x="2167.14453125" xlink:href="#DejaVuSans-20"/>
      <use x="2198.93164062" xlink:href="#DejaVuSans-20"/>
      <use x="2230.71875" xlink:href="#DejaVuSans-20"/>
      <use x="2262.50585938" xlink:href="#DejaVuSans-20"/>
      <use x="2294.29296875" xlink:href="#DejaVuSans-20"/>
      <use x="2326.08007812" xlink:href="#DejaVuSans-20"/>
      <use x="2357.8671875" xlink:href="#DejaVuSans-20"/>
      <use x="2389.65429688" xlink:href="#DejaVuSans-20"/>
      <use x="2421.44140625" xlink:href="#DejaVuSans-20"/>
      <use x="2453.22851562" xlink:href="#DejaVuSans-20"/>
      <use x="2485.015625" xlink:href="#DejaVuSans-20"/>
      <use x="2516.80273438" xlink:href="#DejaVuSans-20"/>
      <use x="2548.58984375" xlink:href="#DejaVuSans-20"/>
      <use x="2580.37695312" xlink:href="#DejaVuSans-20"/>
      <use x="2612.1640625" xlink:href="#DejaVuSans-20"/>
      <use x="2643.95117188" xlink:href="#DejaVuSans-20"/>
      <use x="2675.73828125" xlink:href="#DejaVuSans-20"/>
      <use x="2707.52539062" xlink:href="#DejaVuSans-20"/>
      <use x="2739.3125" xlink:href="#DejaVuSans-20"/>
      <use x="2771.09960938" xlink:href="#DejaVuSans-20"/>
      <use x="2802.88671875" xlink:href="#DejaVuSans-20"/>
      <use x="2834.67382812" xlink:href="#DejaVuSans-20"/>
      <use x="2866.4609375" xlink:href="#DejaVuSans-20"/>
      <use x="2898.24804688" xlink:href="#DejaVuSans-20"/>
      <use x="2930.03515625" xlink:href="#DejaVuSans-20"/>
      <use x="2961.82226562" xlink:href="#DejaVuSans-20"/>
      <use x="2993.609375" xlink:href="#DejaVuSans-20"/>
      <use x="3025.39648438" xlink:href="#DejaVuSans-20"/>
      <use x="3057.18359375" xlink:href="#DejaVuSans-20"/>
      <use x="3088.97070312" xlink:href="#DejaVuSans-20"/>
      <use x="3120.7578125" xlink:href="#DejaVuSans-20"/>
      <use x="3152.54492188" xlink:href="#DejaVuSans-20"/>
      <use x="3184.33203125" xlink:href="#DejaVuSans-20"/>
      <use x="3216.11914062" xlink:href="#DejaVuSans-20"/>
      <use x="3247.90625" xlink:href="#DejaVuSans-20"/>
      <use x="3279.69335938" xlink:href="#DejaVuSans-20"/>
      <use x="3311.48046875" xlink:href="#DejaVuSans-20"/>
      <use x="3343.26757812" xlink:href="#DejaVuSans-20"/>
      <use x="3375.0546875" xlink:href="#DejaVuSans-20"/>
      <use x="3406.84179688" xlink:href="#DejaVuSans-20"/>
      <use x="3438.62890625" xlink:href="#DejaVuSans-20"/>
      <use x="3470.41601562" xlink:href="#DejaVuSans-20"/>
      <use x="3502.203125" xlink:href="#DejaVuSans-20"/>
      <use x="3533.99023438" xlink:href="#DejaVuSans-20"/>
      <use x="3565.77734375" xlink:href="#DejaVuSans-20"/>
      <use x="3597.56445312" xlink:href="#DejaVuSans-20"/>
      <use x="3629.3515625" xlink:href="#DejaVuSans-20"/>
      <use x="3661.13867188" xlink:href="#DejaVuSans-20"/>
      <use x="3692.92578125" xlink:href="#DejaVuSans-20"/>
      <use x="3724.71289062" xlink:href="#DejaVuSans-20"/>
      <use x="3756.5" xlink:href="#DejaVuSans-20"/>
      <use x="3788.28710938" xlink:href="#DejaVuSans-20"/>
      <use x="3820.07421875" xlink:href="#DejaVuSans-20"/>
      <use x="3851.86132812" xlink:href="#DejaVuSans-20"/>
      <use x="3883.6484375" xlink:href="#DejaVuSans-20"/>
      <use x="3915.43554688" xlink:href="#DejaVuSans-20"/>
      <use x="3947.22265625" xlink:href="#DejaVuSans-20"/>
      <use x="3979.00976562" xlink:href="#DejaVuSans-20"/>
      <use x="4010.796875" xlink:href="#DejaVuSans-20"/>
      <use x="4042.58398438" xlink:href="#DejaVuSans-20"/>
      <use x="4074.37109375" xlink:href="#DejaVuSans-20"/>
      <use x="4106.15820312" xlink:href="#DejaVuSans-20"/>
      <use x="4137.9453125" xlink:href="#DejaVuSans-46"/>
      <use x="4191.83984375" xlink:href="#DejaVuSans-6f"/>
      <use x="4253.02148438" xlink:href="#DejaVuSans-6e"/>
      <use x="4316.40039062" xlink:href="#DejaVuSans-74"/>
      <use x="4355.609375" xlink:href="#DejaVuSans-65"/>
      <use x="4417.1328125" xlink:href="#DejaVuSans-3a"/>
      <use x="4450.82421875" xlink:href="#DejaVuSans-20"/>
      <use x="4482.61132812" xlink:href="#DejaVuSans-46"/>
      <use x="4531.00585938" xlink:href="#DejaVuSans-61"/>
      <use x="4592.28515625" xlink:href="#DejaVuSans-63"/>
      <use x="4647.265625" xlink:href="#DejaVuSans-65"/>
      <use x="4708.7890625" xlink:href="#DejaVuSans-62"/>
      <use x="4772.265625" xlink:href="#DejaVuSans-6f"/>
      <use x="4833.44726562" xlink:href="#DejaVuSans-6f"/>
      <use x="4894.62890625" xlink:href="#DejaVuSans-6b"/>
     </g>
    </a>
   </g>
   <g id="text_21">
    <!-- Elezioni 2018 - Sfida Social -->
    <defs>
     <path d="
M32.9062 24.6094
Q27.4375 24.6094 24.6719 22.75
Q21.9219 20.9062 21.9219 17.2812
Q21.9219 13.9688 24.1406 12.0781
Q26.375 10.2031 30.3281 10.2031
Q35.25 10.2031 38.625 13.7344
Q42 17.2812 42 22.6094
L42 24.6094
z

M59.625 31.2031
L59.625 0
L42 0
L42 8.10938
Q38.4844 3.125 34.0781 0.84375
Q29.6875 -1.42188 23.3906 -1.42188
Q14.8906 -1.42188 9.59375 3.53125
Q4.29688 8.5 4.29688 16.4062
Q4.29688 26.0312 10.9062 30.5156
Q17.5312 35.0156 31.6875 35.0156
L42 35.0156
L42 36.375
Q42 40.5312 38.7188 42.4531
Q35.4531 44.3906 28.5156 44.3906
Q22.9062 44.3906 18.0625 43.2656
Q13.2344 42.1406 9.07812 39.8906
L9.07812 53.2188
Q14.7031 54.5938 20.3594 55.2969
Q26.0312 56 31.6875 56
Q46.4844 56 53.0469 50.1719
Q59.625 44.3438 59.625 31.2031" id="DejaVuSans-Bold-61"/>
     <path d="
M52.5938 52.9844
L52.5938 38.7188
Q49.0312 41.1562 45.4375 42.3281
Q41.8438 43.5 37.9844 43.5
Q30.6719 43.5 26.5938 39.2344
Q22.5156 34.9688 22.5156 27.2969
Q22.5156 19.625 26.5938 15.3438
Q30.6719 11.0781 37.9844 11.0781
Q42.0938 11.0781 45.7812 12.2969
Q49.4688 13.5312 52.5938 15.9219
L52.5938 1.60938
Q48.4844 0.09375 44.2656 -0.65625
Q40.0469 -1.42188 35.7969 -1.42188
Q21 -1.42188 12.6406 6.17188
Q4.29688 13.7656 4.29688 27.2969
Q4.29688 40.8281 12.6406 48.4062
Q21 56 35.7969 56
Q40.0938 56 44.2656 55.25
Q48.4375 54.5 52.5938 52.9844" id="DejaVuSans-Bold-63"/>
     <path d="
M62.9844 27.4844
L62.9844 22.5156
L22.125 22.5156
Q22.75 16.3594 26.5625 13.2812
Q30.375 10.2031 37.2031 10.2031
Q42.7188 10.2031 48.5 11.8438
Q54.2969 13.4844 60.4062 16.7969
L60.4062 3.32812
Q54.2031 0.984375 48 -0.21875
Q41.7969 -1.42188 35.5938 -1.42188
Q20.75 -1.42188 12.5156 6.125
Q4.29688 13.6719 4.29688 27.2969
Q4.29688 40.6719 12.375 48.3281
Q20.4531 56 34.625 56
Q47.5156 56 55.25 48.2344
Q62.9844 40.4844 62.9844 27.4844
M45.0156 33.2969
Q45.0156 38.2812 42.1094 41.3281
Q39.2031 44.3906 34.5156 44.3906
Q29.4375 44.3906 26.2656 41.5312
Q23.0938 38.6719 22.3125 33.2969
z
" id="DejaVuSans-Bold-65"/>
     <path d="
M45.6094 46.6875
L45.6094 75.9844
L63.1875 75.9844
L63.1875 0
L45.6094 0
L45.6094 7.90625
Q42 3.07812 37.6406 0.828125
Q33.2969 -1.42188 27.5938 -1.42188
Q17.4844 -1.42188 10.9844 6.60938
Q4.5 14.6562 4.5 27.2969
Q4.5 39.9375 10.9844 47.9688
Q17.4844 56 27.5938 56
Q33.25 56 37.625 53.7344
Q42 51.4688 45.6094 46.6875
M34.0781 11.2812
Q39.7031 11.2812 42.6562 15.375
Q45.6094 19.4844 45.6094 27.2969
Q45.6094 35.1094 42.6562 39.2031
Q39.7031 43.3125 34.0781 43.3125
Q28.5156 43.3125 25.5625 39.2031
Q22.6094 35.1094 22.6094 27.2969
Q22.6094 19.4844 25.5625 15.375
Q28.5156 11.2812 34.0781 11.2812" id="DejaVuSans-Bold-64"/>
     <path d="
M34.8125 32.625
Q29.5469 32.625 26.7031 29.7344
Q23.875 26.8594 23.875 21.4844
Q23.875 16.1094 26.7031 13.25
Q29.5469 10.4062 34.8125 10.4062
Q40.0469 10.4062 42.8281 13.25
Q45.6094 16.1094 45.6094 21.4844
Q45.6094 26.9062 42.8281 29.7656
Q40.0469 32.625 34.8125 32.625
M21.0938 38.8125
Q14.4531 40.8281 11.0781 44.9688
Q7.71875 49.125 7.71875 55.3281
Q7.71875 64.5469 14.5938 69.375
Q21.4844 74.2188 34.8125 74.2188
Q48.0469 74.2188 54.9219 69.4062
Q61.8125 64.5938 61.8125 55.3281
Q61.8125 49.125 58.4219 44.9688
Q55.0312 40.8281 48.3906 38.8125
Q55.8125 36.7656 59.5938 32.1562
Q63.375 27.5469 63.375 20.5156
Q63.375 9.67188 56.1719 4.125
Q48.9688 -1.42188 34.8125 -1.42188
Q20.6094 -1.42188 13.3594 4.125
Q6.10938 9.67188 6.10938 20.5156
Q6.10938 27.5469 9.89062 32.1562
Q13.6719 36.7656 21.0938 38.8125
M25.4844 53.4219
Q25.4844 49.0781 27.9062 46.7344
Q30.3281 44.3906 34.8125 44.3906
Q39.2031 44.3906 41.5938 46.7344
Q44 49.0781 44 53.4219
Q44 57.7656 41.5938 60.0781
Q39.2031 62.4062 34.8125 62.4062
Q30.3281 62.4062 27.9062 60.0625
Q25.4844 57.7188 25.4844 53.4219" id="DejaVuSans-Bold-38"/>
     <path d="
M59.9062 70.6094
L59.9062 55.1719
Q53.9062 57.8594 48.1875 59.2188
Q42.4844 60.5938 37.4062 60.5938
Q30.6719 60.5938 27.4375 58.7344
Q24.2188 56.8906 24.2188 52.9844
Q24.2188 50.0469 26.3906 48.4062
Q28.5625 46.7812 34.2812 45.6094
L42.2812 44
Q54.4375 41.5469 59.5625 36.5625
Q64.7031 31.5938 64.7031 22.4062
Q64.7031 10.3594 57.5469 4.46875
Q50.3906 -1.42188 35.6875 -1.42188
Q28.7656 -1.42188 21.7812 -0.09375
Q14.7969 1.21875 7.8125 3.8125
L7.8125 19.6719
Q14.7969 15.9688 21.3125 14.0781
Q27.8281 12.2031 33.8906 12.2031
Q40.0469 12.2031 43.3125 14.25
Q46.5781 16.3125 46.5781 20.125
Q46.5781 23.5312 44.3594 25.3906
Q42.1406 27.25 35.5 28.7188
L28.2188 30.3281
Q17.2812 32.6719 12.2188 37.7969
Q7.17188 42.9219 7.17188 51.6094
Q7.17188 62.5 14.2031 68.3594
Q21.2344 74.2188 34.4219 74.2188
Q40.4375 74.2188 46.7812 73.3125
Q53.125 72.4062 59.9062 70.6094" id="DejaVuSans-Bold-53"/>
     <path d="
M8.40625 54.6875
L25.875 54.6875
L25.875 0
L8.40625 0
z

M8.40625 75.9844
L25.875 75.9844
L25.875 61.7188
L8.40625 61.7188
z
" id="DejaVuSans-Bold-69"/>
     <path d="
M44.3906 75.9844
L44.3906 64.5
L34.7188 64.5
Q31 64.5 29.5312 63.1562
Q28.0781 61.8125 28.0781 58.5
L28.0781 54.6875
L43.0156 54.6875
L43.0156 42.1875
L28.0781 42.1875
L28.0781 0
L10.5938 0
L10.5938 42.1875
L1.90625 42.1875
L1.90625 54.6875
L10.5938 54.6875
L10.5938 58.5
Q10.5938 67.4375 15.5781 71.7031
Q20.5625 75.9844 31 75.9844
z
" id="DejaVuSans-Bold-66"/>
     <path d="
M28.8125 13.8125
L60.8906 13.8125
L60.8906 0
L7.90625 0
L7.90625 13.8125
L34.5156 37.3125
Q38.0938 40.5312 39.7969 43.6094
Q41.5 46.6875 41.5 50
Q41.5 55.125 38.0625 58.25
Q34.625 61.375 28.9062 61.375
Q24.5156 61.375 19.2812 59.5
Q14.0625 57.625 8.10938 53.9062
L8.10938 69.9219
Q14.4531 72.0156 20.6562 73.1094
Q26.8594 74.2188 32.8125 74.2188
Q45.9062 74.2188 53.1562 68.4531
Q60.4062 62.7031 60.4062 52.3906
Q60.4062 46.4375 57.3281 41.2812
Q54.25 36.1406 44.3906 27.4844
z
" id="DejaVuSans-Bold-32"/>
     <path id="DejaVuSans-Bold-20"/>
     <path d="
M9.1875 72.9062
L59.9062 72.9062
L59.9062 58.6875
L27.9844 58.6875
L27.9844 45.125
L58.0156 45.125
L58.0156 30.9062
L27.9844 30.9062
L27.9844 14.2031
L60.9844 14.2031
L60.9844 0
L9.1875 0
z
" id="DejaVuSans-Bold-45"/>
     <path d="
M11.7188 12.9844
L28.3281 12.9844
L28.3281 60.1094
L11.2812 56.5938
L11.2812 69.3906
L28.2188 72.9062
L46.0938 72.9062
L46.0938 12.9844
L62.7031 12.9844
L62.7031 0
L11.7188 0
z
" id="DejaVuSans-Bold-31"/>
     <path d="
M8.40625 75.9844
L25.875 75.9844
L25.875 0
L8.40625 0
z
" id="DejaVuSans-Bold-6c"/>
     <path d="
M5.71875 54.6875
L53.4219 54.6875
L53.4219 42.4844
L24.6094 12.5
L53.4219 12.5
L53.4219 0
L4.5 0
L4.5 12.2031
L33.2969 42.1875
L5.71875 42.1875
z
" id="DejaVuSans-Bold-7a"/>
     <path d="
M63.375 33.2969
L63.375 0
L45.7969 0
L45.7969 5.42188
L45.7969 25.4844
Q45.7969 32.5625 45.4844 35.25
Q45.1719 37.9375 44.3906 39.2031
Q43.3594 40.9219 41.5938 41.875
Q39.8438 42.8281 37.5938 42.8281
Q32.125 42.8281 29 38.5938
Q25.875 34.375 25.875 26.9062
L25.875 0
L8.40625 0
L8.40625 54.6875
L25.875 54.6875
L25.875 46.6875
Q29.8281 51.4688 34.2656 53.7344
Q38.7188 56 44.0938 56
Q53.5625 56 58.4688 50.1875
Q63.375 44.3906 63.375 33.2969" id="DejaVuSans-Bold-6e"/>
     <path d="
M46 36.5312
Q46 50.2031 43.4375 55.7812
Q40.875 61.375 34.8125 61.375
Q28.7656 61.375 26.1719 55.7812
Q23.5781 50.2031 23.5781 36.5312
Q23.5781 22.7031 26.1719 17.0312
Q28.7656 11.375 34.8125 11.375
Q40.8281 11.375 43.4062 17.0312
Q46 22.7031 46 36.5312
M64.7969 36.375
Q64.7969 18.2656 56.9844 8.42188
Q49.1719 -1.42188 34.8125 -1.42188
Q20.4062 -1.42188 12.5938 8.42188
Q4.78125 18.2656 4.78125 36.375
Q4.78125 54.5469 12.5938 64.375
Q20.4062 74.2188 34.8125 74.2188
Q49.1719 74.2188 56.9844 64.375
Q64.7969 54.5469 64.7969 36.375" id="DejaVuSans-Bold-30"/>
     <path d="
M34.4219 43.5
Q28.6094 43.5 25.5625 39.3281
Q22.5156 35.1562 22.5156 27.2969
Q22.5156 19.4375 25.5625 15.25
Q28.6094 11.0781 34.4219 11.0781
Q40.1406 11.0781 43.1562 15.25
Q46.1875 19.4375 46.1875 27.2969
Q46.1875 35.1562 43.1562 39.3281
Q40.1406 43.5 34.4219 43.5
M34.4219 56
Q48.5312 56 56.4688 48.375
Q64.4062 40.7656 64.4062 27.2969
Q64.4062 13.8125 56.4688 6.1875
Q48.5312 -1.42188 34.4219 -1.42188
Q20.2656 -1.42188 12.2812 6.1875
Q4.29688 13.8125 4.29688 27.2969
Q4.29688 40.7656 12.2812 48.375
Q20.2656 56 34.4219 56" id="DejaVuSans-Bold-6f"/>
     <path d="
M5.42188 35.8906
L36.0781 35.8906
L36.0781 21.6875
L5.42188 21.6875
z
" id="DejaVuSans-Bold-2d"/>
    </defs>
    <g style="opacity:0.75;" transform="translate(7.2 17.8378125)scale(0.14 -0.14)">
     <use xlink:href="#DejaVuSans-Bold-45"/>
     <use x="68.310546875" xlink:href="#DejaVuSans-Bold-6c"/>
     <use x="102.587890625" xlink:href="#DejaVuSans-Bold-65"/>
     <use x="170.41015625" xlink:href="#DejaVuSans-Bold-7a"/>
     <use x="228.61328125" xlink:href="#DejaVuSans-Bold-69"/>
     <use x="262.890625" xlink:href="#DejaVuSans-Bold-6f"/>
     <use x="331.591796875" xlink:href="#DejaVuSans-Bold-6e"/>
     <use x="402.783203125" xlink:href="#DejaVuSans-Bold-69"/>
     <use x="437.060546875" xlink:href="#DejaVuSans-Bold-20"/>
     <use x="471.875" xlink:href="#DejaVuSans-Bold-32"/>
     <use x="541.455078125" xlink:href="#DejaVuSans-Bold-30"/>
     <use x="611.03515625" xlink:href="#DejaVuSans-Bold-31"/>
     <use x="680.615234375" xlink:href="#DejaVuSans-Bold-38"/>
     <use x="750.1953125" xlink:href="#DejaVuSans-Bold-20"/>
     <use x="785.009765625" xlink:href="#DejaVuSans-Bold-2d"/>
     <use x="826.513671875" xlink:href="#DejaVuSans-Bold-20"/>
     <use x="861.328125" xlink:href="#DejaVuSans-Bold-53"/>
     <use x="933.349609375" xlink:href="#DejaVuSans-Bold-66"/>
     <use x="976.85546875" xlink:href="#DejaVuSans-Bold-69"/>
     <use x="1011.1328125" xlink:href="#DejaVuSans-Bold-64"/>
     <use x="1082.71484375" xlink:href="#DejaVuSans-Bold-61"/>
     <use x="1150.1953125" xlink:href="#DejaVuSans-Bold-20"/>
     <use x="1185.00976562" xlink:href="#DejaVuSans-Bold-53"/>
     <use x="1257.03125" xlink:href="#DejaVuSans-Bold-6f"/>
     <use x="1325.73242188" xlink:href="#DejaVuSans-Bold-63"/>
     <use x="1385.00976562" xlink:href="#DejaVuSans-Bold-69"/>
     <use x="1419.28710938" xlink:href="#DejaVuSans-Bold-61"/>
     <use x="1486.76757812" xlink:href="#DejaVuSans-Bold-6c"/>
    </g>
   </g>
   <g id="text_22">
    <!-- Possibili sfidanti politici alle elezioni 2018 e numero di seguaci su Facebook. -->
    <defs>
     <path d="
M45.4062 27.9844
Q45.4062 37.75 41.375 43.1094
Q37.3594 48.4844 30.0781 48.4844
Q22.8594 48.4844 18.8281 43.1094
Q14.7969 37.75 14.7969 27.9844
Q14.7969 18.2656 18.8281 12.8906
Q22.8594 7.51562 30.0781 7.51562
Q37.3594 7.51562 41.375 12.8906
Q45.4062 18.2656 45.4062 27.9844
M54.3906 6.78125
Q54.3906 -7.17188 48.1875 -13.9844
Q42 -20.7969 29.2031 -20.7969
Q24.4688 -20.7969 20.2656 -20.0938
Q16.0625 -19.3906 12.1094 -17.9219
L12.1094 -9.1875
Q16.0625 -11.3281 19.9219 -12.3438
Q23.7812 -13.375 27.7812 -13.375
Q36.625 -13.375 41.0156 -8.76562
Q45.4062 -4.15625 45.4062 5.17188
L45.4062 9.625
Q42.625 4.78125 38.2812 2.39062
Q33.9375 0 27.875 0
Q17.8281 0 11.6719 7.65625
Q5.51562 15.3281 5.51562 27.9844
Q5.51562 40.6719 11.6719 48.3281
Q17.8281 56 27.875 56
Q33.9375 56 38.2812 53.6094
Q42.625 51.2188 45.4062 46.3906
L45.4062 54.6875
L54.3906 54.6875
z
" id="DejaVuSans-67"/>
    </defs>
    <g style="opacity:0.85;" transform="translate(7.2 30.544)scale(0.1 -0.1)">
     <use xlink:href="#DejaVuSans-50"/>
     <use x="56.677734375" xlink:href="#DejaVuSans-6f"/>
     <use x="117.859375" xlink:href="#DejaVuSans-73"/>
     <use x="169.958984375" xlink:href="#DejaVuSans-73"/>
     <use x="222.05859375" xlink:href="#DejaVuSans-69"/>
     <use x="249.841796875" xlink:href="#DejaVuSans-62"/>
     <use x="313.318359375" xlink:href="#DejaVuSans-69"/>
     <use x="341.1015625" xlink:href="#DejaVuSans-6c"/>
     <use x="368.884765625" xlink:href="#DejaVuSans-69"/>
     <use x="396.66796875" xlink:href="#DejaVuSans-20"/>
     <use x="428.455078125" xlink:href="#DejaVuSans-73"/>
     <use x="480.5546875" xlink:href="#DejaVuSans-66"/>
     <use x="515.759765625" xlink:href="#DejaVuSans-69"/>
     <use x="543.54296875" xlink:href="#DejaVuSans-64"/>
     <use x="607.01953125" xlink:href="#DejaVuSans-61"/>
     <use x="668.298828125" xlink:href="#DejaVuSans-6e"/>
     <use x="731.677734375" xlink:href="#DejaVuSans-74"/>
     <use x="770.88671875" xlink:href="#DejaVuSans-69"/>
     <use x="798.669921875" xlink:href="#DejaVuSans-20"/>
     <use x="830.45703125" xlink:href="#DejaVuSans-70"/>
     <use x="893.93359375" xlink:href="#DejaVuSans-6f"/>
     <use x="955.115234375" xlink:href="#DejaVuSans-6c"/>
     <use x="982.8984375" xlink:href="#DejaVuSans-69"/>
     <use x="1010.68164062" xlink:href="#DejaVuSans-74"/>
     <use x="1049.890625" xlink:href="#DejaVuSans-69"/>
     <use x="1077.67382812" xlink:href="#DejaVuSans-63"/>
     <use x="1132.65429688" xlink:href="#DejaVuSans-69"/>
     <use x="1160.4375" xlink:href="#DejaVuSans-20"/>
     <use x="1192.22460938" xlink:href="#DejaVuSans-61"/>
     <use x="1253.50390625" xlink:href="#DejaVuSans-6c"/>
     <use x="1281.28710938" xlink:href="#DejaVuSans-6c"/>
     <use x="1309.0703125" xlink:href="#DejaVuSans-65"/>
     <use x="1370.59375" xlink:href="#DejaVuSans-20"/>
     <use x="1402.38085938" xlink:href="#DejaVuSans-65"/>
     <use x="1463.90429688" xlink:href="#DejaVuSans-6c"/>
     <use x="1491.6875" xlink:href="#DejaVuSans-65"/>
     <use x="1553.2109375" xlink:href="#DejaVuSans-7a"/>
     <use x="1605.70117188" xlink:href="#DejaVuSans-69"/>
     <use x="1633.484375" xlink:href="#DejaVuSans-6f"/>
     <use x="1694.66601562" xlink:href="#DejaVuSans-6e"/>
     <use x="1758.04492188" xlink:href="#DejaVuSans-69"/>
     <use x="1785.828125" xlink:href="#DejaVuSans-20"/>
     <use x="1817.61523438" xlink:href="#DejaVuSans-32"/>
     <use x="1881.23828125" xlink:href="#DejaVuSans-30"/>
     <use x="1944.86132812" xlink:href="#DejaVuSans-31"/>
     <use x="2008.484375" xlink:href="#DejaVuSans-38"/>
     <use x="2072.10742188" xlink:href="#DejaVuSans-20"/>
     <use x="2103.89453125" xlink:href="#DejaVuSans-65"/>
     <use x="2165.41796875" xlink:href="#DejaVuSans-20"/>
     <use x="2197.20507812" xlink:href="#DejaVuSans-6e"/>
     <use x="2260.58398438" xlink:href="#DejaVuSans-75"/>
     <use x="2323.96289062" xlink:href="#DejaVuSans-6d"/>
     <use x="2421.375" xlink:href="#DejaVuSans-65"/>
     <use x="2482.8984375" xlink:href="#DejaVuSans-72"/>
     <use x="2521.76171875" xlink:href="#DejaVuSans-6f"/>
     <use x="2582.94335938" xlink:href="#DejaVuSans-20"/>
     <use x="2614.73046875" xlink:href="#DejaVuSans-64"/>
     <use x="2678.20703125" xlink:href="#DejaVuSans-69"/>
     <use x="2705.99023438" xlink:href="#DejaVuSans-20"/>
     <use x="2737.77734375" xlink:href="#DejaVuSans-73"/>
     <use x="2789.87695312" xlink:href="#DejaVuSans-65"/>
     <use x="2851.40039062" xlink:href="#DejaVuSans-67"/>
     <use x="2914.87695312" xlink:href="#DejaVuSans-75"/>
     <use x="2978.25585938" xlink:href="#DejaVuSans-61"/>
     <use x="3039.53515625" xlink:href="#DejaVuSans-63"/>
     <use x="3094.515625" xlink:href="#DejaVuSans-69"/>
     <use x="3122.29882812" xlink:href="#DejaVuSans-20"/>
     <use x="3154.0859375" xlink:href="#DejaVuSans-73"/>
     <use x="3206.18554688" xlink:href="#DejaVuSans-75"/>
     <use x="3269.56445312" xlink:href="#DejaVuSans-20"/>
     <use x="3301.3515625" xlink:href="#DejaVuSans-46"/>
     <use x="3349.74609375" xlink:href="#DejaVuSans-61"/>
     <use x="3411.02539062" xlink:href="#DejaVuSans-63"/>
     <use x="3466.00585938" xlink:href="#DejaVuSans-65"/>
     <use x="3527.52929688" xlink:href="#DejaVuSans-62"/>
     <use x="3591.00585938" xlink:href="#DejaVuSans-6f"/>
     <use x="3652.1875" xlink:href="#DejaVuSans-6f"/>
     <use x="3713.36914062" xlink:href="#DejaVuSans-6b"/>
     <use x="3771.27929688" xlink:href="#DejaVuSans-2e"/>
    </g>
    <!-- Renzi e Di Maio testa a testa, Salvini stacca tutti... quanti saranno fake? -->
    <defs>
     <path d="
M11.7188 12.4062
L22.0156 12.4062
L22.0156 4
L14.0156 -11.625
L7.71875 -11.625
L11.7188 4
z
" id="DejaVuSans-2c"/>
     <path d="
M14.7969 27.2969
Q14.7969 17.3906 18.875 11.75
Q22.9531 6.10938 30.0781 6.10938
Q37.2031 6.10938 41.2969 11.75
Q45.4062 17.3906 45.4062 27.2969
Q45.4062 37.2031 41.2969 42.8438
Q37.2031 48.4844 30.0781 48.4844
Q22.9531 48.4844 18.875 42.8438
Q14.7969 37.2031 14.7969 27.2969
M45.4062 8.20312
Q42.5781 3.32812 38.25 0.953125
Q33.9375 -1.42188 27.875 -1.42188
Q17.9688 -1.42188 11.7344 6.48438
Q5.51562 14.4062 5.51562 27.2969
Q5.51562 40.1875 11.7344 48.0938
Q17.9688 56 27.875 56
Q33.9375 56 38.25 53.625
Q42.5781 51.2656 45.4062 46.3906
L45.4062 54.6875
L54.3906 54.6875
L54.3906 -20.7969
L45.4062 -20.7969
z
" id="DejaVuSans-71"/>
     <path d="
M19.0938 12.4062
L29 12.4062
L29 0
L19.0938 0
z

M28.7188 19.5781
L19.3906 19.5781
L19.3906 27.0938
Q19.3906 32.0312 20.75 35.2031
Q22.125 38.375 26.5156 42.5781
L30.9062 46.9219
Q33.6875 49.5156 34.9375 51.8125
Q36.1875 54.1094 36.1875 56.5
Q36.1875 60.8438 32.9844 63.5312
Q29.7812 66.2188 24.5156 66.2188
Q20.6562 66.2188 16.2812 64.5
Q11.9219 62.7969 7.17188 59.5156
L7.17188 68.7031
Q11.7656 71.4844 16.4688 72.8438
Q21.1875 74.2188 26.2188 74.2188
Q35.2031 74.2188 40.6406 69.4844
Q46.0938 64.75 46.0938 56.9844
Q46.0938 53.2656 44.3281 49.9219
Q42.5781 46.5781 38.1875 42.3906
L33.8906 38.1875
Q31.5938 35.8906 30.6406 34.5938
Q29.6875 33.2969 29.2969 32.0781
Q29 31.0625 28.8594 29.5938
Q28.7188 28.125 28.7188 25.5938
z
" id="DejaVuSans-3f"/>
    </defs>
    <g style="opacity:0.85;" transform="translate(7.2 41.7418125)scale(0.1 -0.1)">
     <use xlink:href="#DejaVuSans-52"/>
     <use x="64.982421875" xlink:href="#DejaVuSans-65"/>
     <use x="126.505859375" xlink:href="#DejaVuSans-6e"/>
     <use x="189.884765625" xlink:href="#DejaVuSans-7a"/>
     <use x="242.375" xlink:href="#DejaVuSans-69"/>
     <use x="270.158203125" xlink:href="#DejaVuSans-20"/>
     <use x="301.9453125" xlink:href="#DejaVuSans-65"/>
     <use x="363.46875" xlink:href="#DejaVuSans-20"/>
     <use x="395.255859375" xlink:href="#DejaVuSans-44"/>
     <use x="472.2578125" xlink:href="#DejaVuSans-69"/>
     <use x="500.041015625" xlink:href="#DejaVuSans-20"/>
     <use x="531.828125" xlink:href="#DejaVuSans-4d"/>
     <use x="618.107421875" xlink:href="#DejaVuSans-61"/>
     <use x="679.38671875" xlink:href="#DejaVuSans-69"/>
     <use x="707.169921875" xlink:href="#DejaVuSans-6f"/>
     <use x="768.3515625" xlink:href="#DejaVuSans-20"/>
     <use x="800.138671875" xlink:href="#DejaVuSans-74"/>
     <use x="839.34765625" xlink:href="#DejaVuSans-65"/>
     <use x="900.87109375" xlink:href="#DejaVuSans-73"/>
     <use x="952.970703125" xlink:href="#DejaVuSans-74"/>
     <use x="992.1796875" xlink:href="#DejaVuSans-61"/>
     <use x="1053.45898438" xlink:href="#DejaVuSans-20"/>
     <use x="1085.24609375" xlink:href="#DejaVuSans-61"/>
     <use x="1146.52539062" xlink:href="#DejaVuSans-20"/>
     <use x="1178.3125" xlink:href="#DejaVuSans-74"/>
     <use x="1217.52148438" xlink:href="#DejaVuSans-65"/>
     <use x="1279.04492188" xlink:href="#DejaVuSans-73"/>
     <use x="1331.14453125" xlink:href="#DejaVuSans-74"/>
     <use x="1370.35351562" xlink:href="#DejaVuSans-61"/>
     <use x="1431.6328125" xlink:href="#DejaVuSans-2c"/>
     <use x="1463.41992188" xlink:href="#DejaVuSans-20"/>
     <use x="1495.20703125" xlink:href="#DejaVuSans-53"/>
     <use x="1558.68359375" xlink:href="#DejaVuSans-61"/>
     <use x="1619.96289062" xlink:href="#DejaVuSans-6c"/>
     <use x="1647.74609375" xlink:href="#DejaVuSans-76"/>
     <use x="1706.92578125" xlink:href="#DejaVuSans-69"/>
     <use x="1734.70898438" xlink:href="#DejaVuSans-6e"/>
     <use x="1798.08789062" xlink:href="#DejaVuSans-69"/>
     <use x="1825.87109375" xlink:href="#DejaVuSans-20"/>
     <use x="1857.65820312" xlink:href="#DejaVuSans-73"/>
     <use x="1909.7578125" xlink:href="#DejaVuSans-74"/>
     <use x="1948.96679688" xlink:href="#DejaVuSans-61"/>
     <use x="2010.24609375" xlink:href="#DejaVuSans-63"/>
     <use x="2065.2265625" xlink:href="#DejaVuSans-63"/>
     <use x="2120.20703125" xlink:href="#DejaVuSans-61"/>
     <use x="2181.48632812" xlink:href="#DejaVuSans-20"/>
     <use x="2213.2734375" xlink:href="#DejaVuSans-74"/>
     <use x="2252.48242188" xlink:href="#DejaVuSans-75"/>
     <use x="2315.86132812" xlink:href="#DejaVuSans-74"/>
     <use x="2355.0703125" xlink:href="#DejaVuSans-74"/>
     <use x="2394.27929688" xlink:href="#DejaVuSans-69"/>
     <use x="2422.0625" xlink:href="#DejaVuSans-2e"/>
     <use x="2453.84960938" xlink:href="#DejaVuSans-2e"/>
     <use x="2485.63671875" xlink:href="#DejaVuSans-2e"/>
     <use x="2517.42382812" xlink:href="#DejaVuSans-20"/>
     <use x="2549.2109375" xlink:href="#DejaVuSans-71"/>
     <use x="2612.6875" xlink:href="#DejaVuSans-75"/>
     <use x="2676.06640625" xlink:href="#DejaVuSans-61"/>
     <use x="2737.34570312" xlink:href="#DejaVuSans-6e"/>
     <use x="2800.72460938" xlink:href="#DejaVuSans-74"/>
     <use x="2839.93359375" xlink:href="#DejaVuSans-69"/>
     <use x="2867.71679688" xlink:href="#DejaVuSans-20"/>
     <use x="2899.50390625" xlink:href="#DejaVuSans-73"/>
     <use x="2951.60351562" xlink:href="#DejaVuSans-61"/>
     <use x="3012.8828125" xlink:href="#DejaVuSans-72"/>
     <use x="3053.99609375" xlink:href="#DejaVuSans-61"/>
     <use x="3115.27539062" xlink:href="#DejaVuSans-6e"/>
     <use x="3178.65429688" xlink:href="#DejaVuSans-6e"/>
     <use x="3242.03320312" xlink:href="#DejaVuSans-6f"/>
     <use x="3303.21484375" xlink:href="#DejaVuSans-20"/>
     <use x="3335.00195312" xlink:href="#DejaVuSans-66"/>
     <use x="3370.20703125" xlink:href="#DejaVuSans-61"/>
     <use x="3431.48632812" xlink:href="#DejaVuSans-6b"/>
     <use x="3485.77148438" xlink:href="#DejaVuSans-65"/>
     <use x="3547.29492188" xlink:href="#DejaVuSans-3f"/>
    </g>
   </g>
  </g>
 </g>
 <defs>
  <clipPath id="p6f308c8336">
   <rect height="239.04" width="438.48" x="51.048" y="53.6938125"/>
  </clipPath>
 </defs>
</svg>
